<svg viewBox="0 0 100 100" fill="none" xmlns="http://www.w3.org/2000/svg">
    <circle cx="50" cy="50" r="48" fill="#FFFFFF" stroke="#4A2582" stroke-width="4"/>
    <circle cx="50" cy="50" r="42" fill="#4A2582"/>
    <circle cx="50" cy="50" r="34" fill="#FFFFFF"/>
    {/* Professional Seal Caduceus / Quill / Sun */}
    <circle cx="50" cy="46" r="16" fill="#F4EEFB"/>
    <path d="M50,22 L53,30 L61,25 L58,33 L66,33 L60,39 L66,45 L58,45 L61,53 L53,48 L50,56 L47,48 L39,53 L42,45 L34,45 L40,39 L34,33 L42,33 L39,25 L47,30 Z" fill="#FCD116"/>
    <circle cx="50" cy="39" r="6" fill="#4A2582"/>
    <path d="M46,48 L54,48 L52,66 L48,66 Z" fill="#4A2582"/>
    <text x="50" y="85" font-family="Arial, sans-serif" font-size="8" font-weight="900" fill="#4A2582" text-anchor="middle" letter-spacing="1">PRC</text>
  </svg>